<?xml version="1.0" encoding="UTF-8" ?>
<!DOCTYPE svg PUBLIC "-//W3C//DTD SVG 1.1//EN" "http://www.w3.org/Graphics/SVG/1.1/DTD/svg11.dtd">
<svg width="1200pt" height="1058pt" viewBox="0 0 1200 1058" version="1.1" xmlns="http://www.w3.org/2000/svg">
<g id="#8d2f77ff">
<path fill="#8d2f77" opacity="1.00" d=" M 575.62 21.88 C 579.32 8.68 593.60 -0.28 607.10 2.10 C 619.54 3.76 629.91 14.59 631.09 27.08 C 632.08 34.50 628.97 41.52 627.34 48.61 C 633.67 48.40 640.10 50.04 645.29 53.74 C 653.07 59.10 657.78 68.54 657.39 77.98 C 657.24 83.66 654.81 88.91 653.88 94.46 C 662.24 94.09 670.67 97.56 676.26 103.80 C 682.65 110.73 685.25 120.92 682.86 130.05 C 681.35 135.86 679.74 141.65 678.21 147.46 C 684.09 147.28 690.07 148.64 695.05 151.84 C 703.22 156.92 708.41 166.39 708.27 176.02 C 708.31 180.41 706.91 184.61 705.80 188.80 C 702.03 202.90 698.25 217.00 694.48 231.10 C 706.01 251.07 717.53 271.05 729.07 291.01 C 740.71 309.93 743.68 333.78 737.18 355.01 C 734.69 364.22 732.23 373.44 729.76 382.66 C 740.26 379.91 750.74 377.06 761.23 374.28 C 780.78 369.18 802.26 372.11 819.74 382.23 C 840.24 394.10 860.78 405.88 881.25 417.80 C 897.46 413.56 913.60 409.05 929.80 404.77 C 937.87 402.79 946.70 404.71 953.32 409.70 C 960.94 415.21 965.25 424.66 964.85 434.01 C 970.87 432.45 976.85 430.72 982.89 429.22 C 992.91 426.81 1004.03 430.50 1010.74 438.29 C 1015.64 443.78 1018.07 451.20 1017.78 458.52 C 1025.05 456.66 1032.47 453.72 1040.08 455.40 C 1053.87 457.61 1064.42 471.02 1063.62 484.92 C 1070.89 483.07 1078.33 480.13 1085.95 481.87 C 1099.44 484.16 1110.05 497.25 1109.26 510.95 C 1108.87 523.03 1100.01 534.23 1088.28 537.26 C 1042.87 549.44 997.44 561.59 952.02 573.76 C 939.48 576.88 927.07 581.52 913.97 581.33 C 900.42 581.68 887.60 576.85 874.65 573.63 C 823.38 559.90 772.13 546.17 720.87 532.44 C 708.36 528.43 694.79 526.46 681.94 530.15 C 641.94 540.84 601.95 551.58 561.94 562.24 C 555.34 564.42 548.14 557.73 549.88 551.00 C 560.62 510.35 571.65 469.77 582.46 429.14 C 584.83 419.63 584.74 409.53 582.24 400.05 C 567.08 343.47 551.92 286.87 536.76 230.28 C 534.96 223.18 532.61 216.17 531.68 208.88 C 530.34 198.88 530.97 188.62 533.54 178.87 C 547.57 126.54 561.57 74.20 575.62 21.88 M 593.24 30.91 C 579.60 82.01 565.86 133.09 552.20 184.19 C 549.73 193.88 549.82 204.19 552.42 213.84 C 568.54 273.97 584.64 334.11 600.76 394.25 C 602.66 401.40 603.66 408.80 603.51 416.21 C 638.31 407.23 672.95 397.59 707.71 388.45 C 711.51 374.66 715.10 360.83 718.82 347.02 C 722.80 332.09 720.60 315.64 712.87 302.26 C 692.73 267.38 672.57 232.49 652.43 197.60 C 649.54 192.13 643.04 188.89 636.94 189.99 C 630.15 190.98 624.68 197.17 624.50 204.03 C 624.08 208.80 626.87 212.86 629.16 216.77 C 639.77 235.17 650.40 253.56 661.00 271.96 C 666.63 281.89 668.07 294.06 665.00 305.05 C 662.98 312.37 661.12 319.74 659.06 327.05 C 657.61 332.45 650.94 335.50 645.91 333.06 C 642.39 331.66 640.87 327.99 639.08 324.97 C 617.97 288.41 596.86 251.85 575.74 215.30 C 569.98 205.43 568.30 193.29 571.19 182.24 C 584.45 132.80 597.72 83.37 610.95 33.93 C 612.95 28.00 607.21 21.53 601.12 22.56 C 596.82 23.02 593.87 26.85 593.24 30.91 M 620.28 75.14 C 610.25 112.40 600.22 149.66 590.22 186.93 C 588.42 193.58 589.72 200.86 593.37 206.67 C 611.22 237.33 628.79 268.17 646.78 298.75 C 647.82 292.76 647.07 286.38 643.93 281.11 C 632.56 261.41 621.20 241.72 609.83 222.03 C 605.31 214.36 603.95 204.89 606.23 196.27 C 616.64 157.37 627.00 118.46 637.37 79.55 C 638.73 75.09 635.91 70.05 631.51 68.68 C 626.81 67.06 621.31 70.33 620.28 75.14 M 646.98 120.03 C 642.23 136.90 637.84 153.88 633.16 170.78 C 639.18 169.83 645.40 170.29 651.16 172.30 C 655.21 157.59 659.05 142.83 663.06 128.11 C 664.47 124.28 664.69 119.49 661.41 116.53 C 657.14 111.98 648.81 114.20 646.98 120.03 M 671.12 173.93 C 670.23 177.81 668.64 181.60 668.26 185.54 C 672.41 192.67 676.40 199.90 680.71 206.93 C 683.23 197.22 685.97 187.57 688.46 177.85 C 689.63 173.29 686.44 168.27 681.89 167.22 C 677.24 165.95 672.08 169.23 671.12 173.93 M 765.98 393.22 C 752.94 396.65 739.93 400.21 726.89 403.61 C 725.80 404.10 723.92 403.87 723.66 405.36 C 714.42 439.78 705.21 474.20 696.00 508.63 C 703.38 508.59 710.78 509.47 717.91 511.40 C 775.29 526.78 832.67 542.15 890.04 557.52 C 902.68 561.61 916.43 563.51 929.38 559.67 C 980.64 545.92 1031.91 532.22 1083.15 518.44 C 1087.82 517.35 1090.86 512.07 1089.46 507.48 C 1088.26 502.74 1082.78 499.76 1078.15 501.34 C 1028.76 514.52 979.34 527.64 929.97 540.91 C 918.83 543.84 906.58 542.11 896.66 536.27 C 858.86 514.40 821.02 492.59 783.22 470.72 C 779.15 468.52 777.18 463.17 778.92 458.88 C 780.04 455.79 782.82 453.48 786.02 452.79 C 793.26 450.84 800.51 448.91 807.75 446.97 C 815.50 444.93 823.81 445.08 831.48 447.40 C 838.95 449.56 845.27 454.25 852.04 457.92 C 868.13 467.19 884.19 476.51 900.29 485.76 C 906.79 489.62 915.88 487.33 919.96 481.02 C 924.81 474.33 922.20 463.95 915.00 460.05 C 879.90 439.77 844.79 419.52 809.68 399.25 C 796.59 391.76 780.60 389.54 765.98 393.22 M 600.54 437.46 C 591.47 471.32 582.39 505.18 573.32 539.04 C 607.19 530.00 641.04 520.89 674.91 511.84 C 683.98 477.97 693.08 444.11 702.11 410.24 C 668.25 419.30 634.39 428.38 600.54 437.46 M 905.69 431.55 C 912.35 436.39 919.95 439.89 926.92 444.29 C 930.91 443.17 934.95 442.22 938.93 441.02 C 943.48 439.78 946.34 434.48 944.88 429.99 C 943.60 425.51 938.45 422.57 933.96 423.98 C 924.52 426.47 915.10 429.01 905.69 431.55 M 939.94 461.01 C 941.90 466.81 942.36 473.02 941.42 479.06 C 958.11 474.56 974.81 470.14 991.50 465.64 C 995.73 464.65 998.72 460.25 998.15 455.96 C 997.87 451.42 993.44 447.80 988.96 448.10 C 972.53 451.97 956.30 456.78 939.94 461.01 M 813.75 465.44 C 816.14 467.42 818.98 468.73 821.63 470.32 C 849.72 486.60 877.84 502.84 905.93 519.13 C 911.62 522.62 918.70 523.77 925.19 522.08 C 962.45 512.11 999.72 502.13 1036.98 492.13 C 1042.07 491.08 1045.23 485.21 1043.47 480.35 C 1041.66 476.15 1036.57 473.61 1032.17 475.17 C 993.52 485.48 954.86 495.80 916.20 506.10 C 907.58 508.35 898.13 507.03 890.44 502.53 C 870.58 491.07 850.72 479.60 830.85 468.15 C 825.72 465.16 819.55 464.42 813.75 465.44 Z" />
<path fill="#8d2f77" opacity="1.00" d=" M 801.66 47.67 C 828.79 22.88 868.92 13.67 904.21 23.76 C 935.68 32.38 962.59 55.86 975.41 85.85 C 980.49 97.53 983.41 110.11 984.24 122.81 C 1017.21 124.58 1048.87 142.16 1067.71 169.29 C 1087.54 197.23 1093.04 234.67 1081.99 267.12 C 1076.29 283.91 1066.72 299.58 1053.50 311.50 C 1033.22 330.18 1007.34 341.71 980.90 348.65 C 945.09 357.90 907.66 359.00 870.95 356.12 C 838.93 353.54 807.22 347.84 776.04 340.23 C 771.53 339.24 767.92 335.49 767.03 330.99 C 756.31 286.85 749.15 241.56 749.77 196.03 C 750.37 160.18 755.90 123.77 771.12 91.04 C 778.59 74.91 788.72 59.92 801.66 47.67 M 821.04 65.07 C 804.79 79.74 794.15 99.57 787.26 120.12 C 779.20 144.20 775.98 169.67 775.45 194.99 C 774.71 236.20 780.93 277.22 790.14 317.28 C 812.20 322.42 834.53 326.51 857.04 329.11 C 894.58 333.36 933.07 333.79 970.03 325.11 C 995.91 318.84 1021.72 307.96 1040.46 288.48 C 1051.64 276.24 1058.79 260.46 1061.05 244.06 C 1063.76 224.71 1059.43 204.48 1048.93 187.99 C 1035.00 165.65 1010.00 150.47 983.64 149.12 C 982.18 169.53 978.46 190.15 969.72 208.79 C 964.05 221.00 954.74 231.82 942.40 237.57 C 928.48 244.34 911.66 244.71 897.44 238.59 C 883.33 232.65 872.04 220.41 867.27 205.86 C 862.31 191.15 864.06 174.35 872.00 161.02 C 878.13 150.30 888.30 142.50 899.39 137.41 C 917.89 128.89 938.26 125.43 958.41 123.66 C 956.77 99.09 943.75 75.58 923.66 61.30 C 906.88 49.18 885.49 43.66 864.93 46.15 C 848.87 48.00 833.45 54.72 821.04 65.07 M 907.33 162.28 C 898.88 166.50 892.18 174.52 890.80 184.01 C 888.65 195.92 895.08 208.77 906.02 214.00 C 915.51 218.86 927.68 217.73 936.09 211.19 C 943.02 205.90 946.87 197.71 949.78 189.71 C 954.27 176.84 956.45 163.27 957.69 149.74 C 940.49 151.60 922.87 154.25 907.33 162.28 Z" />
<path fill="#8d2f77" opacity="1.00" d=" M 364.73 413.78 C 375.94 400.13 393.75 393.43 411.05 392.74 C 434.88 391.57 458.85 402.27 474.19 420.47 C 465.09 428.87 456.08 437.37 446.99 445.80 C 440.16 438.06 431.49 431.30 421.15 429.29 C 413.45 427.73 404.79 428.53 398.48 433.58 C 390.89 439.82 390.62 452.57 397.40 459.51 C 401.38 463.85 406.63 466.72 412.05 468.89 C 422.25 473.24 432.94 476.33 443.04 480.92 C 451.03 484.58 459.34 488.03 466.00 493.93 C 478.33 504.46 485.34 520.80 484.56 536.99 C 484.88 550.51 480.28 564.20 471.21 574.31 C 458.53 588.82 438.86 595.51 420.01 596.09 C 389.24 597.36 357.81 580.15 344.14 552.22 C 355.39 545.42 366.45 538.30 377.71 531.51 C 382.97 544.12 394.47 554.04 407.90 556.89 C 418.02 559.00 429.48 558.43 438.02 552.03 C 445.96 545.90 446.82 533.02 440.25 525.59 C 434.96 519.40 427.35 516.04 419.93 513.14 C 405.68 507.70 391.18 502.66 377.80 495.22 C 366.03 488.26 356.68 476.77 353.69 463.28 C 350.14 446.29 353.28 427.25 364.73 413.78 Z" />
<path fill="#8d2f77" opacity="1.00" d=" M 15.02 395.20 C 28.75 395.23 42.48 395.24 56.21 395.20 C 56.32 448.90 56.23 502.61 56.26 556.32 C 78.43 556.35 100.59 556.31 122.76 556.34 C 122.78 568.66 122.76 580.98 122.77 593.30 C 86.85 593.33 50.92 593.30 15.00 593.31 C 15.01 527.27 14.97 461.24 15.02 395.20 Z" />
<path fill="#8d2f77" opacity="1.00" d=" M 214.28 395.23 C 229.69 395.25 245.11 395.19 260.53 395.27 C 286.97 461.30 313.53 527.28 339.98 593.30 C 325.08 593.30 310.18 593.33 295.28 593.29 C 290.53 580.51 285.75 567.75 280.96 555.00 C 251.90 554.99 222.85 555.02 193.80 554.99 C 188.89 567.74 184.28 580.60 179.34 593.34 C 164.50 593.26 149.65 593.34 134.80 593.30 C 161.28 527.27 187.76 461.25 214.28 395.23 M 206.71 520.37 C 227.25 520.39 247.79 520.39 268.33 520.38 C 258.11 492.80 247.79 465.26 237.54 437.70 C 227.21 465.23 216.96 492.80 206.71 520.37 Z" />
<path fill="#8d2f77" opacity="1.00" d=" M 358.54 637.77 C 379.52 634.40 401.58 638.43 420.04 648.95 C 446.04 663.48 464.10 691.04 467.17 720.66 C 469.47 741.18 464.79 762.41 454.00 780.03 C 444.68 795.40 430.81 807.93 414.62 815.73 C 397.18 824.26 377.06 827.14 357.92 823.91 C 338.83 820.77 320.75 811.64 307.01 798.00 C 294.84 786.07 286.06 770.74 281.88 754.21 C 273.01 720.65 284.74 682.77 311.05 660.11 C 324.36 648.41 341.02 640.53 358.54 637.77 M 363.48 674.67 C 346.85 677.29 331.53 687.67 323.59 702.60 C 315.32 717.88 314.29 736.83 320.88 752.92 C 326.04 766.06 336.60 776.96 349.58 782.52 C 363.68 788.73 380.19 789.12 394.57 783.59 C 405.44 779.55 414.89 771.90 421.15 762.15 C 430.67 747.22 432.78 727.92 426.93 711.23 C 423.30 700.41 416.18 690.79 406.83 684.22 C 394.39 675.48 378.42 672.14 363.48 674.67 Z" />
<path fill="#8d2f77" opacity="1.00" d=" M 1090.23 652.17 C 1103.78 639.21 1123.81 634.71 1142.06 637.14 C 1159.65 639.57 1176.37 648.59 1187.93 662.09 C 1186.97 664.39 1184.29 665.77 1182.63 667.69 C 1176.18 673.80 1169.67 679.85 1163.21 685.96 C 1157.25 679.21 1149.85 673.28 1140.98 671.05 C 1133.45 669.17 1124.79 669.55 1118.46 674.48 C 1111.23 680.19 1110.95 692.18 1117.35 698.62 C 1123.20 705.00 1131.74 707.60 1139.55 710.71 C 1149.59 714.23 1159.56 718.03 1169.06 722.87 C 1176.20 726.20 1182.57 731.17 1187.45 737.38 C 1198.29 750.71 1200.49 769.32 1196.35 785.62 C 1192.56 799.78 1182.01 811.63 1168.90 817.94 C 1151.85 826.14 1131.78 827.27 1113.66 822.21 C 1093.99 816.58 1076.47 803.04 1067.26 784.62 C 1077.62 778.10 1088.06 771.71 1098.42 765.20 C 1102.18 773.87 1108.87 781.33 1117.37 785.56 C 1129.16 791.22 1144.86 792.07 1155.46 783.44 C 1162.12 777.45 1162.47 766.03 1156.48 759.46 C 1152.91 755.49 1148.32 752.55 1143.42 750.48 C 1128.05 743.95 1111.83 739.21 1097.39 730.64 C 1087.32 724.26 1079.39 714.24 1076.59 702.55 C 1072.56 684.96 1076.71 664.76 1090.23 652.17 Z" />
<path fill="#8d2f77" opacity="1.00" d=" M 1.74 638.75 C 16.09 638.73 30.45 638.73 44.80 638.76 C 62.29 686.43 79.66 734.14 97.23 781.79 C 114.55 734.10 132.00 686.46 149.31 638.77 C 163.67 638.72 178.02 638.74 192.38 638.75 C 167.81 700.05 143.15 761.31 118.58 822.60 C 104.23 822.64 89.88 822.62 75.54 822.61 C 50.94 761.32 26.32 700.04 1.74 638.75 Z" />
<path fill="#8d2f77" opacity="1.00" d=" M 208.95 638.75 C 221.70 638.74 234.45 638.74 247.20 638.75 C 247.26 699.99 247.09 761.24 247.29 822.48 C 234.55 822.82 221.79 822.47 209.04 822.66 C 208.83 761.36 209.00 700.05 208.95 638.75 Z" />
<path fill="#8d2f77" opacity="1.00" d=" M 498.21 638.89 C 510.96 638.52 523.73 638.92 536.50 638.68 C 536.75 688.60 536.53 738.52 536.61 788.44 C 557.19 788.47 577.78 788.41 598.36 788.48 C 598.35 799.84 598.33 811.20 598.37 822.56 C 565.02 822.66 531.66 822.58 498.30 822.60 C 498.23 761.36 498.42 700.12 498.21 638.89 Z" />
<path fill="#8d2f77" opacity="1.00" d=" M 619.15 638.76 C 656.81 638.74 694.48 638.75 732.14 638.76 C 732.08 650.06 732.30 661.36 732.03 672.66 C 707.16 672.51 682.29 672.65 657.43 672.59 C 657.36 686.30 657.42 700.02 657.40 713.74 C 678.88 713.76 700.36 713.74 721.84 713.76 C 721.84 725.04 721.86 736.32 721.83 747.60 C 700.36 747.58 678.89 747.61 657.42 747.59 C 657.37 761.29 657.41 774.99 657.40 788.69 C 682.31 788.71 707.23 788.69 732.14 788.71 C 732.09 800.02 732.28 811.34 732.04 822.65 C 694.42 822.53 656.79 822.62 619.16 822.61 C 619.13 761.32 619.16 700.04 619.15 638.76 Z" />
<path fill="#8d2f77" opacity="1.00" d=" M 745.61 638.75 C 789.47 638.75 833.33 638.75 877.19 638.76 C 877.20 650.12 877.19 661.47 877.19 672.83 C 861.58 672.89 845.97 672.75 830.36 672.91 C 830.45 722.79 830.35 772.68 830.41 822.56 C 817.72 822.63 805.04 822.58 792.36 822.59 C 792.35 772.68 792.37 722.76 792.35 672.84 C 776.77 672.84 761.19 672.83 745.61 672.85 C 745.59 661.48 745.60 650.12 745.61 638.75 Z" />
<path fill="#8d2f77" opacity="1.00" d=" M 872.98 822.60 C 897.57 761.31 922.16 700.02 946.79 638.75 C 961.11 638.76 975.44 638.74 989.78 638.76 C 1014.35 700.04 1038.96 761.31 1063.55 822.58 C 1049.74 822.63 1035.92 822.50 1022.11 822.65 C 1017.50 810.86 1013.21 798.94 1008.79 787.08 C 981.85 787.05 954.90 786.98 927.96 787.12 C 922.95 798.62 919.04 810.82 914.44 822.59 C 900.62 822.59 886.80 822.58 872.98 822.60 M 939.74 754.90 C 958.82 754.82 977.90 755.07 996.97 754.77 C 987.35 729.28 977.89 703.73 968.45 678.18 C 958.60 703.64 949.35 729.34 939.74 754.90 Z" />
<path fill="#8d2f77" opacity="1.00" d=" M 514.40 1008.34 C 521.88 1003.96 532.00 1006.33 537.46 1012.85 C 535.30 1014.94 533.34 1017.21 531.03 1019.15 C 528.46 1016.28 524.27 1014.10 520.45 1015.69 C 517.37 1016.85 517.13 1021.43 519.77 1023.21 C 524.77 1026.56 531.31 1027.06 535.91 1031.13 C 542.06 1036.62 541.35 1047.82 534.42 1052.37 C 525.17 1058.65 510.95 1055.08 506.03 1044.94 C 508.72 1043.23 511.43 1041.55 514.14 1039.86 C 516.57 1044.89 523.03 1048.00 528.22 1045.20 C 531.19 1043.73 531.13 1039.20 528.43 1037.50 C 523.07 1033.89 515.84 1033.54 511.21 1028.74 C 505.74 1022.93 507.40 1012.20 514.40 1008.34 Z" />
<path fill="#8d2f77" opacity="1.00" d=" M 398.64 1006.95 C 408.30 1007.49 418.89 1005.06 427.64 1010.37 C 440.65 1017.94 442.18 1038.31 431.51 1048.51 C 427.13 1052.68 421.06 1054.83 415.06 1054.92 C 409.59 1054.96 404.12 1054.91 398.65 1054.93 C 398.62 1038.94 398.64 1022.94 398.64 1006.95 M 408.63 1015.89 C 408.61 1025.91 408.62 1035.92 408.63 1045.94 C 412.56 1045.92 416.75 1046.37 420.38 1044.52 C 430.71 1039.73 430.81 1022.41 420.63 1017.41 C 416.94 1015.45 412.64 1015.90 408.63 1015.89 Z" />
<path fill="#8d2f77" opacity="1.00" d=" M 459.59 1006.95 C 469.43 1006.94 479.26 1006.94 489.10 1006.95 C 489.10 1009.88 489.10 1012.81 489.10 1015.76 C 482.61 1015.78 476.12 1015.75 469.63 1015.78 C 469.61 1019.31 469.61 1022.84 469.62 1026.38 C 475.22 1026.40 480.82 1026.35 486.42 1026.41 C 486.41 1029.37 486.40 1032.33 486.40 1035.30 C 480.78 1035.37 475.15 1035.17 469.54 1035.42 C 469.65 1038.92 469.62 1042.43 469.62 1045.95 C 476.11 1045.95 482.60 1045.94 489.10 1045.95 C 489.10 1048.92 489.10 1051.89 489.09 1054.87 C 479.26 1054.87 469.43 1054.87 459.60 1054.87 C 459.57 1038.90 459.59 1022.93 459.59 1006.95 Z" />
<path fill="#8d2f77" opacity="1.00" d=" M 559.41 1007.04 C 569.15 1007.31 579.83 1005.03 588.65 1010.34 C 602.89 1018.64 603.15 1042.51 588.99 1051.02 C 580.17 1056.69 569.30 1054.23 559.44 1054.75 C 559.42 1038.84 559.48 1022.94 559.41 1007.04 M 569.56 1015.82 C 569.55 1025.84 569.55 1035.87 569.56 1045.90 C 573.52 1045.85 577.74 1046.33 581.40 1044.48 C 591.34 1039.65 591.74 1023.21 582.29 1017.69 C 578.46 1015.38 573.84 1015.79 569.56 1015.82 Z" />
<path fill="#8d2f77" opacity="1.00" d=" M 620.55 1006.95 C 630.38 1006.94 640.21 1006.94 650.05 1006.95 C 650.06 1009.88 650.05 1012.81 650.02 1015.75 C 643.53 1015.75 637.04 1015.74 630.56 1015.75 C 630.54 1019.30 630.54 1022.84 630.56 1026.40 C 636.16 1026.43 641.77 1026.33 647.38 1026.45 C 647.35 1029.39 647.33 1032.34 647.35 1035.30 C 641.73 1035.34 636.12 1035.22 630.51 1035.37 C 630.56 1038.89 630.55 1042.42 630.55 1045.95 C 637.05 1045.95 643.55 1045.94 650.05 1045.95 C 650.05 1048.91 650.05 1051.87 650.05 1054.85 C 640.22 1054.85 630.39 1054.85 620.56 1054.86 C 620.54 1038.89 620.55 1022.92 620.55 1006.95 Z" />
<path fill="#8d2f77" opacity="1.00" d=" M 697.70 1007.06 C 703.18 1007.05 708.66 1007.05 714.15 1007.06 C 714.15 1023.03 714.15 1039.01 714.15 1054.98 C 710.90 1055.00 707.66 1055.00 704.42 1054.94 C 704.49 1041.88 704.44 1028.81 704.45 1015.75 C 702.20 1015.74 699.94 1015.73 697.70 1015.73 C 697.69 1012.83 697.70 1009.94 697.70 1007.06 Z" />
<path fill="#8d2f77" opacity="1.00" d=" M 735.78 1017.72 C 739.72 1006.83 754.84 1003.16 763.79 1010.16 C 770.91 1015.01 772.25 1025.50 767.52 1032.48 C 762.15 1040.11 756.53 1047.57 751.04 1055.11 C 747.36 1055.09 743.68 1055.10 740.01 1055.09 C 743.87 1050.05 747.75 1045.03 751.68 1040.04 C 740.68 1040.40 731.57 1028.07 735.78 1017.72 M 749.43 1015.58 C 745.11 1017.21 743.29 1022.72 745.23 1026.79 C 746.72 1030.52 751.16 1032.36 754.94 1031.24 C 760.18 1029.92 762.40 1022.94 759.46 1018.60 C 757.44 1015.29 752.94 1014.11 749.43 1015.58 Z" />
<path fill="#8d2f77" opacity="1.00" d=" M 790.16 1018.13 C 793.80 1007.11 808.91 1003.11 817.98 1009.95 C 822.99 1013.42 825.87 1019.83 824.58 1025.87 C 823.76 1031.35 819.82 1035.47 816.76 1039.84 C 813.09 1044.90 809.34 1049.90 805.74 1055.01 C 801.99 1055.17 798.25 1055.08 794.51 1055.09 C 798.40 1050.07 802.27 1045.05 806.18 1040.06 C 795.36 1040.33 786.33 1028.42 790.16 1018.13 M 804.29 1015.45 C 797.74 1017.44 797.21 1027.74 803.32 1030.60 C 808.20 1033.40 815.08 1029.72 815.18 1024.02 C 816.30 1018.18 809.69 1013.16 804.29 1015.45 Z" />
<path fill="#8d2f77" opacity="1.00" d=" M 842.90 1007.03 C 853.87 1007.02 864.84 1007.05 875.81 1007.02 C 875.63 1009.98 876.64 1013.25 875.03 1015.96 C 868.00 1028.95 861.19 1042.05 854.12 1055.01 C 850.39 1054.93 846.66 1054.97 842.94 1054.97 C 850.21 1041.85 857.45 1028.72 864.68 1015.59 C 857.42 1015.56 850.16 1015.59 842.90 1015.58 C 842.89 1012.72 842.89 1009.87 842.90 1007.03 Z" />
</g>
<g id="#7b7b7cf7">
<path fill="#7b7b7c" opacity="0.97" d=" M 233.75 894.73 C 240.69 890.75 250.02 892.95 255.08 898.97 C 253.05 900.85 251.04 902.74 249.00 904.61 C 246.60 902.03 242.91 899.94 239.34 901.25 C 236.30 902.19 236.00 906.69 238.60 908.33 C 243.21 911.42 249.24 911.87 253.49 915.62 C 259.18 920.64 258.73 930.98 252.39 935.29 C 243.80 941.31 230.88 937.86 225.73 928.92 C 228.12 927.04 230.72 925.47 233.40 924.06 C 235.44 928.99 242.03 931.61 246.68 928.71 C 249.12 927.07 248.76 923.12 246.30 921.69 C 241.33 918.45 234.69 918.04 230.51 913.53 C 225.56 908.08 227.24 898.21 233.75 894.73 Z" />
<path fill="#7b7b7c" opacity="0.97" d=" M 455.42 908.15 C 458.28 899.46 466.88 893.07 476.03 892.89 C 483.14 892.48 490.07 895.85 494.64 901.22 C 492.28 903.10 489.88 904.92 487.50 906.79 C 482.44 900.85 472.47 900.31 467.03 905.99 C 461.02 911.88 462.23 923.19 469.63 927.38 C 475.33 930.99 483.11 929.40 487.54 924.51 C 489.87 926.38 492.25 928.21 494.63 930.03 C 490.91 934.36 485.71 937.48 480.00 938.20 C 472.70 939.30 465.02 936.49 460.09 931.02 C 454.47 925.03 452.70 915.87 455.42 908.15 Z" />
<path fill="#7b7b7c" opacity="0.97" d=" M 669.03 893.46 C 678.10 893.53 687.18 893.46 696.25 893.50 C 696.25 896.22 696.25 898.95 696.26 901.69 C 690.32 901.72 684.38 901.74 678.44 901.68 C 678.30 904.96 678.34 908.24 678.37 911.54 C 683.55 911.54 688.73 911.52 693.92 911.55 C 693.92 914.30 693.92 917.05 693.91 919.81 C 688.71 919.85 683.52 919.74 678.33 919.88 C 678.37 923.16 678.35 926.45 678.36 929.74 C 684.32 929.75 690.28 929.73 696.25 929.75 C 696.25 932.48 696.25 935.22 696.25 937.97 C 687.15 937.97 678.05 937.97 668.95 937.97 C 668.99 923.13 668.85 908.29 669.03 893.46 Z" />
<path fill="#7b7b7c" opacity="0.97" d=" M 736.99 893.45 C 740.25 893.50 743.50 893.50 746.77 893.44 C 751.71 901.52 756.34 909.80 761.18 917.95 C 765.88 909.81 770.73 901.76 775.33 893.58 C 778.68 893.43 782.04 893.47 785.40 893.50 C 785.41 908.29 785.50 923.08 785.45 937.87 C 782.37 937.87 779.30 937.86 776.24 937.86 C 776.20 928.23 776.29 918.60 776.19 908.98 C 770.83 917.30 766.26 926.12 761.16 934.61 C 756.14 925.89 751.23 917.11 746.16 908.42 C 746.14 918.28 746.16 928.14 746.15 938.00 C 743.06 938.00 739.98 937.99 736.90 938.00 C 736.96 923.15 736.77 908.30 736.99 893.45 Z" />
<path fill="#7b7b7c" opacity="0.97" d=" M 913.54 893.76 C 921.92 891.27 931.61 894.05 937.24 900.78 C 944.45 908.91 944.51 922.24 937.35 930.41 C 931.40 937.66 920.78 940.36 912.04 937.07 C 903.67 934.15 897.59 925.91 897.17 917.07 C 896.32 906.72 903.50 896.44 913.54 893.76 M 915.44 902.68 C 908.33 904.78 904.36 913.28 906.91 920.17 C 909.10 927.60 918.29 931.37 925.25 928.27 C 932.15 925.70 935.35 916.98 932.50 910.35 C 930.04 903.75 921.98 900.37 915.44 902.68 Z" />
<path fill="#7b7b7c" opacity="0.97" d=" M 1055.69 894.76 C 1062.66 890.78 1071.89 893.04 1077.04 898.96 C 1075.00 900.86 1072.97 902.76 1070.93 904.65 C 1068.51 902.07 1064.79 899.96 1061.21 901.31 C 1058.21 902.29 1057.92 906.79 1060.54 908.39 C 1065.15 911.41 1071.10 911.92 1075.36 915.60 C 1081.13 920.63 1080.66 931.03 1074.26 935.36 C 1065.64 941.36 1052.72 937.85 1047.62 928.84 C 1050.10 927.10 1052.65 925.46 1055.34 924.05 C 1057.30 928.79 1063.34 931.23 1067.98 928.94 C 1070.83 927.65 1070.88 923.28 1068.29 921.68 C 1063.35 918.37 1056.72 917.99 1052.48 913.54 C 1047.37 908.14 1049.08 898.17 1055.69 894.76 Z" />
<path fill="#7b7b7c" opacity="0.97" d=" M 137.00 893.49 C 143.64 893.55 150.28 893.36 156.91 893.57 C 163.62 893.99 168.97 900.37 168.78 906.99 C 168.95 912.63 164.98 917.78 159.71 919.55 C 163.84 925.66 168.03 931.73 172.12 937.86 C 168.50 937.87 164.89 937.88 161.28 937.83 C 157.71 931.98 153.98 926.23 150.41 920.40 C 149.01 920.36 147.61 920.35 146.21 920.33 C 146.19 926.17 146.22 932.02 146.20 937.87 C 143.13 937.86 140.07 937.86 137.00 937.87 C 136.99 923.08 137.00 908.28 137.00 893.49 M 146.17 901.82 C 146.22 905.44 146.20 909.06 146.21 912.69 C 149.57 912.53 153.04 913.10 156.33 912.31 C 160.65 910.84 160.88 904.08 156.71 902.29 C 153.33 901.21 149.67 901.93 146.17 901.82 Z" />
<path fill="#7b7b7c" opacity="0.97" d=" M 185.70 893.49 C 194.80 893.48 203.90 893.48 213.00 893.49 C 213.00 896.23 213.00 898.97 212.99 901.72 C 207.03 901.71 201.07 901.71 195.10 901.72 C 195.02 905.00 194.97 908.28 195.04 911.57 C 200.19 911.51 205.35 911.54 210.50 911.54 C 210.52 914.30 210.51 917.06 210.49 919.83 C 205.32 919.81 200.15 919.81 194.98 919.82 C 194.96 923.12 194.96 926.44 195.01 929.75 C 200.96 929.74 206.91 929.74 212.86 929.75 C 212.88 932.48 212.88 935.23 212.85 937.98 C 203.80 937.96 194.75 937.98 185.70 937.97 C 185.69 923.14 185.69 908.32 185.70 893.49 Z" />
<path fill="#7b7b7c" opacity="0.97" d=" M 272.65 893.49 C 275.75 893.48 278.86 893.48 281.97 893.50 C 281.97 908.29 281.99 923.07 281.96 937.86 C 278.85 937.86 275.75 937.86 272.66 937.87 C 272.63 923.08 272.65 908.28 272.65 893.49 Z" />
<path fill="#7b7b7c" opacity="0.97" d=" M 300.00 893.49 C 309.26 893.98 319.57 891.63 327.76 897.21 C 340.18 905.40 340.01 926.50 327.35 934.38 C 319.20 939.67 309.12 937.37 300.00 937.87 C 299.99 923.08 300.00 908.28 300.00 893.49 M 309.25 901.85 C 309.27 911.15 309.25 920.44 309.26 929.74 C 312.75 929.72 316.43 930.09 319.68 928.53 C 329.48 924.40 329.95 908.22 320.62 903.34 C 317.17 901.37 313.06 901.81 309.25 901.85 Z" />
<path fill="#7b7b7c" opacity="0.97" d=" M 353.33 937.94 C 353.37 923.12 353.27 908.29 353.38 893.47 C 362.47 893.51 371.55 893.48 380.64 893.48 C 380.67 896.22 380.67 898.96 380.66 901.71 C 374.70 901.73 368.74 901.70 362.78 901.72 C 362.76 904.99 362.76 908.26 362.77 911.53 C 367.95 911.55 373.13 911.52 378.30 911.55 C 378.30 914.29 378.31 917.03 378.32 919.78 C 373.15 919.85 367.98 919.80 362.81 919.81 C 362.75 923.14 362.70 926.47 362.84 929.81 C 368.72 929.61 374.60 929.90 380.48 929.63 C 380.76 932.38 380.68 935.16 380.67 937.93 C 371.55 938.00 362.44 937.98 353.33 937.94 Z" />
<path fill="#7b7b7c" opacity="0.97" d=" M 396.80 893.49 C 399.95 893.48 403.10 893.48 406.26 893.47 C 413.76 903.55 421.10 913.75 428.59 923.84 C 428.59 913.72 428.58 903.61 428.59 893.50 C 431.66 893.46 434.73 893.47 437.80 893.54 C 437.72 908.31 437.79 923.08 437.76 937.86 C 434.59 937.87 431.42 937.87 428.26 937.87 C 420.84 927.72 413.49 917.52 406.05 907.38 C 406.04 917.54 406.06 927.70 406.05 937.86 C 402.96 937.86 399.88 937.86 396.81 937.87 C 396.78 923.07 396.80 908.28 396.80 893.49 Z" />
<path fill="#7b7b7c" opacity="0.97" d=" M 509.70 893.50 C 512.79 893.48 515.90 893.48 519.00 893.49 C 518.99 908.29 519.01 923.08 519.00 937.87 C 515.90 937.86 512.80 937.86 509.70 937.87 C 509.68 923.07 509.70 908.28 509.70 893.50 Z" />
<path fill="#7b7b7c" opacity="0.97" d=" M 532.17 937.86 C 538.09 923.07 544.13 908.32 550.04 893.53 C 553.49 893.47 556.95 893.49 560.41 893.45 C 566.51 908.21 572.41 923.05 578.39 937.86 C 575.03 937.87 571.67 937.87 568.32 937.85 C 567.24 934.95 566.24 932.04 565.03 929.20 C 558.49 929.32 551.95 929.20 545.41 929.27 C 544.37 932.08 543.30 934.89 542.38 937.75 C 538.97 937.95 535.57 937.85 532.17 937.86 M 548.35 921.48 C 552.91 921.49 557.47 921.48 562.03 921.50 C 559.80 915.36 557.46 909.27 555.23 903.14 C 552.85 909.22 550.64 915.37 548.35 921.48 Z" />
<path fill="#7b7b7c" opacity="0.97" d=" M 615.59 893.49 C 624.72 893.98 634.81 891.69 642.96 896.98 C 655.88 905.00 655.70 926.90 642.54 934.61 C 634.44 939.62 624.58 937.37 615.61 937.87 C 615.57 923.08 615.59 908.29 615.59 893.49 M 624.87 901.83 C 624.86 911.13 624.86 920.44 624.88 929.75 C 628.62 929.75 632.63 930.08 636.02 928.15 C 645.28 923.43 645.24 907.66 635.81 903.15 C 632.44 901.39 628.53 901.83 624.87 901.83 Z" />
<path fill="#7b7b7c" opacity="0.97" d=" M 816.21 893.52 C 819.73 893.48 823.25 893.41 826.78 893.59 C 832.56 908.40 838.66 923.08 844.56 937.85 C 841.17 937.87 837.78 937.90 834.41 937.79 C 833.42 934.96 832.36 932.17 831.41 929.35 C 824.79 929.17 818.17 929.24 811.56 929.31 C 810.54 932.14 809.47 934.96 808.47 937.80 C 805.08 937.90 801.70 937.87 798.33 937.86 C 804.26 923.07 810.28 908.31 816.21 893.52 M 814.52 921.48 C 819.08 921.49 823.65 921.49 828.22 921.48 C 826.00 915.39 823.65 909.36 821.46 903.28 C 818.87 909.23 816.83 915.41 814.52 921.48 Z" />
<path fill="#7b7b7c" opacity="0.97" d=" M 847.15 893.50 C 850.67 893.47 854.21 893.47 857.74 893.53 C 860.97 898.60 864.02 903.80 867.48 908.74 C 870.55 903.58 873.86 898.57 877.06 893.49 C 880.53 893.48 884.01 893.47 887.49 893.50 C 882.41 901.37 876.99 909.02 872.08 916.98 C 871.79 923.93 872.07 930.90 871.96 937.86 C 868.87 937.86 865.78 937.87 862.70 937.87 C 862.65 931.21 862.75 924.55 862.67 917.90 C 862.70 916.69 861.79 915.79 861.25 914.83 C 856.51 907.74 851.83 900.62 847.15 893.50 Z" />
<path fill="#7b7b7c" opacity="0.97" d=" M 958.90 893.49 C 965.56 893.55 972.23 893.35 978.90 893.58 C 985.57 894.06 990.86 900.42 990.66 907.02 C 990.82 912.62 986.89 917.80 981.61 919.51 C 985.69 925.67 989.92 931.72 994.02 937.86 C 990.43 937.87 986.85 937.87 983.28 937.85 C 979.69 932.02 975.95 926.29 972.42 920.43 C 970.99 920.38 969.57 920.35 968.16 920.32 C 968.13 926.17 968.16 932.01 968.15 937.87 C 965.06 937.86 961.98 937.86 958.90 937.86 C 958.90 923.07 958.89 908.28 958.90 893.49 M 968.32 901.77 C 968.29 905.40 968.30 909.04 968.31 912.68 C 971.84 912.44 975.60 913.33 978.99 912.05 C 983.20 910.08 982.56 903.10 978.03 902.00 C 974.82 901.48 971.54 901.86 968.32 901.77 Z" />
<path fill="#7b7b7c" opacity="0.97" d=" M 1007.49 893.49 C 1016.60 893.49 1025.71 893.47 1034.82 893.50 C 1034.81 896.23 1034.81 898.97 1034.81 901.71 C 1028.84 901.72 1022.89 901.70 1016.93 901.72 C 1016.91 904.99 1016.91 908.26 1016.93 911.53 C 1022.10 911.54 1027.28 911.53 1032.45 911.55 C 1032.46 914.29 1032.45 917.04 1032.46 919.80 C 1027.28 919.83 1022.10 919.80 1016.93 919.82 C 1016.91 923.12 1016.91 926.42 1016.93 929.74 C 1022.86 929.72 1028.80 929.81 1034.73 929.68 C 1034.82 932.43 1034.84 935.19 1034.81 937.95 C 1025.70 937.99 1016.60 937.96 1007.50 937.97 C 1007.48 923.14 1007.49 908.32 1007.49 893.49 Z" />
</g>
</svg>
